<?xml version="1.0" encoding="utf-8"?>
<!-- Generator: Adobe Illustrator 18.1.1, SVG Export Plug-In . SVG Version: 6.00 Build 0)  -->
<!DOCTYPE svg PUBLIC "-//W3C//DTD SVG 1.1//EN" "http://www.w3.org/Graphics/SVG/1.1/DTD/svg11.dtd">
<svg version="1.1" id="Calque_1" xmlns="http://www.w3.org/2000/svg" xmlns:xlink="http://www.w3.org/1999/xlink" x="0px" y="0px"
	 viewBox="0 0 600 600" enable-background="new 0 0 600 600" xml:space="preserve">
<path d="M123.2,561.6c0,0,1,10.8,75.5,14.5c74.5,3.7,151.9,7.5,245.9-1.8c15.2-0.8,21.3-7.1,23.8-11.3s-6.8-98-6.8-98l-2.8-46.7
	l-2.2-43.2l0-52.8l3.6-21.9l3.7-20.8l3-13.4c0,0,1.3-5.3,2.5-8.3c1.2-3,1.3-3.8,3.8,0.4c2.6,4.2,15.3,26.2,15.3,26.2l4.5,8
	c0,0,2.2,4.2,13.4,2.8c9-2.4,63.2-19.4,85.9-41.3c1.4-1.6,2.3-1.1-1.8-9.8c-4.1-8.7-23.6-48.7-23.6-48.7l-18.6-29.2l-14.6-34.5
	L519,100.6c0,0-7.9-21.6-37.2-33.9c-29.3-12.4-108.5-41.6-108.5-41.6s-11-5.7-19.2-2.7c-11.5,2.1-57.8,13-113.5,1.9
	c-4.2-0.9-8.8-2.8-24.2,4.7S110,73.9,110,73.9s-17.4,9.6-33.9,35.8s-50,94.6-50,94.6s-7.4,23-12.2,27.8s-9.9,12.8-2.1,20.1
	c7.8,7.3,22.8,22,83,44.2c9.7,3.2,14.6-4.7,19.6-15.8c5-11.1,7.2-15.8,7.2-15.8l2.5-6.9l2,5c0,0,8.2,26.7,9.6,60.9s-5.2,159-5.2,159
	S122.3,543.2,123.2,561.6z"/>
</svg>
